<?xml version="1.0" standalone="no"?>
<!DOCTYPE svg PUBLIC "-//W3C//DTD SVG 20010904//EN"
 "http://www.w3.org/TR/2001/REC-SVG-20010904/DTD/svg10.dtd">
<svg version="1.0" xmlns="http://www.w3.org/2000/svg"
 width="256.000000pt" height="256.000000pt" viewBox="0 0 256.000000 256.000000"
 preserveAspectRatio="xMidYMid meet">
<metadata>
Created by potrace 1.11, written by Peter Selinger 2001-2013
</metadata>
<g transform="translate(0.000000,256.000000) scale(0.100000,-0.100000)"
fill="#000000" stroke="none">
<path d="M1702 2430 c-4 -3 -7 -50 -7 -105 1 -55 0 -103 -2 -107 -2 -4 -23 3
-46 16 -23 13 -113 62 -199 110 -86 47 -161 86 -167 86 -6 0 -90 -44 -188 -98
-98 -54 -218 -120 -268 -147 -49 -26 -107 -59 -127 -72 -21 -12 -40 -23 -42
-23 -4 0 -418 -227 -551 -302 l-60 -34 0 -182 c-1 -100 1 -182 3 -182 3 0 59
30 126 67 66 36 148 81 181 99 33 17 253 138 489 268 236 130 432 236 437 236
5 0 29 -11 54 -25 25 -14 66 -37 93 -51 26 -15 74 -41 107 -59 33 -18 213
-117 400 -220 187 -103 367 -202 400 -220 33 -17 86 -46 118 -63 31 -18 59
-32 62 -32 10 0 2 360 -9 369 -12 10 -55 34 -236 132 l-125 68 0 238 0 238
-218 0 c-120 0 -221 -2 -225 -5z"/>
<path d="M1075 1764 c-104 -58 -195 -110 -202 -116 -7 -6 -13 -7 -13 -4 0 4
-10 0 -22 -9 -13 -8 -152 -86 -310 -173 l-288 -157 0 -574 c0 -502 2 -572 15
-561 8 6 47 29 87 50 40 21 93 50 118 64 25 13 75 41 113 61 37 19 90 49 118
65 27 17 52 30 54 30 3 0 80 42 172 93 93 52 173 96 178 98 6 2 49 26 97 52
l88 49 82 -45 c147 -79 202 -109 243 -132 48 -27 95 -53 325 -177 210 -115
259 -141 328 -180 29 -17 56 -28 59 -25 4 4 7 853 4 1093 -1 36 -5 42 -38 60
-21 11 -110 60 -198 109 -88 48 -182 100 -210 115 -27 15 -115 63 -195 107
-80 44 -200 110 -266 146 -67 37 -128 67 -135 67 -8 0 -99 -48 -204 -106z"/>
</g>
</svg>
