<?xml version="1.0" standalone="no"?><!-- Generator: Gravit.io --><svg xmlns="http://www.w3.org/2000/svg" xmlns:xlink="http://www.w3.org/1999/xlink" style="isolation:isolate" viewBox="1278.2 641.154 52.146 41.543" width="52.146" height="41.543"><path d=" M 1289.134 641.154 C 1284.965 641.154 1281.564 644 1281.564 647.491 L 1281.564 659.461 L 1281.144 659.461 C 1279.521 659.466 1278.207 660.566 1278.2 661.925 L 1278.2 662.629 L 1278.371 662.629 C 1278.703 663.526 1279.6 664.219 1280.723 664.359 L 1280.723 664.39 C 1282.126 664.39 1283.246 665.327 1283.246 666.502 L 1283.246 669.318 C 1283.246 673.617 1286.138 677.355 1290.373 679.253 L 1287.945 681.288 L 1286.611 681.288 C 1286.307 681.285 1286.025 681.419 1285.871 681.638 C 1285.72 681.857 1285.72 682.128 1285.871 682.347 C 1286.026 682.567 1286.309 682.699 1286.611 682.697 L 1288.641 682.697 L 1292.022 679.866 C 1293.519 680.338 1295.104 680.582 1296.703 680.584 L 1311.843 680.584 C 1313.491 680.584 1315.062 680.323 1316.524 679.866 L 1319.905 682.697 L 1321.935 682.697 C 1322.238 682.699 1322.52 682.567 1322.675 682.347 C 1322.826 682.128 1322.826 681.857 1322.675 681.638 C 1322.52 681.418 1322.237 681.286 1321.935 681.288 L 1320.601 681.288 L 1318.173 679.253 C 1322.408 677.354 1325.3 673.616 1325.3 669.318 L 1325.3 666.502 C 1325.3 665.327 1326.42 664.39 1327.823 664.39 L 1327.823 664.359 C 1328.946 664.218 1329.843 663.526 1330.175 662.629 L 1330.346 662.629 L 1330.346 661.925 C 1330.346 660.572 1329.019 659.461 1327.402 659.461 L 1283.246 659.461 L 1283.246 647.491 C 1283.246 644.759 1285.871 642.562 1289.134 642.562 L 1293.365 642.562 C 1292.807 643.167 1292.502 643.909 1292.498 644.674 L 1292.498 646.787 L 1302.591 646.787 L 1302.591 644.674 C 1302.591 642.738 1300.699 641.154 1298.386 641.154 L 1289.134 641.154 Z  M 1296.703 642.562 L 1298.386 642.562 C 1299.788 642.562 1300.909 643.5 1300.909 644.674 L 1300.909 645.378 L 1294.18 645.378 L 1294.18 644.674 C 1294.18 643.5 1295.301 642.562 1296.703 642.562 Z  M 1294.18 648.195 C 1293.718 648.195 1293.339 648.512 1293.339 648.899 C 1293.339 649.286 1293.718 649.603 1294.18 649.603 C 1294.643 649.603 1295.021 649.286 1295.021 648.899 C 1295.021 648.512 1294.643 648.195 1294.18 648.195 Z  M 1297.545 648.195 C 1297.082 648.195 1296.703 648.512 1296.703 648.899 C 1296.703 649.286 1297.082 649.603 1297.545 649.603 C 1298.007 649.603 1298.386 649.286 1298.386 648.899 C 1298.386 648.512 1298.007 648.195 1297.545 648.195 Z  M 1300.909 648.195 C 1300.446 648.195 1300.068 648.512 1300.068 648.899 C 1300.068 649.286 1300.446 649.603 1300.909 649.603 C 1301.371 649.603 1301.75 649.286 1301.75 648.899 C 1301.75 648.512 1301.371 648.195 1300.909 648.195 Z  M 1294.18 651.011 C 1293.718 651.011 1293.339 651.328 1293.339 651.715 C 1293.339 652.103 1293.718 652.419 1294.18 652.419 C 1294.643 652.419 1295.021 652.103 1295.021 651.715 C 1295.021 651.328 1294.643 651.011 1294.18 651.011 Z  M 1297.545 651.011 C 1297.082 651.011 1296.703 651.328 1296.703 651.715 C 1296.703 652.103 1297.082 652.419 1297.545 652.419 C 1298.007 652.419 1298.386 652.103 1298.386 651.715 C 1298.386 651.328 1298.007 651.011 1297.545 651.011 Z  M 1300.909 651.011 C 1300.446 651.011 1300.068 651.328 1300.068 651.715 C 1300.068 652.103 1300.446 652.419 1300.909 652.419 C 1301.371 652.419 1301.75 652.103 1301.75 651.715 C 1301.75 651.328 1301.371 651.011 1300.909 651.011 Z  M 1294.18 653.828 C 1293.718 653.828 1293.339 654.145 1293.339 654.532 C 1293.339 654.919 1293.718 655.236 1294.18 655.236 C 1294.643 655.236 1295.021 654.919 1295.021 654.532 C 1295.021 654.145 1294.643 653.828 1294.18 653.828 Z  M 1297.545 653.828 C 1297.082 653.828 1296.703 654.145 1296.703 654.532 C 1296.703 654.919 1297.082 655.236 1297.545 655.236 C 1298.007 655.236 1298.386 654.919 1298.386 654.532 C 1298.386 654.145 1298.007 653.828 1297.545 653.828 Z  M 1300.909 653.828 C 1300.446 653.828 1300.068 654.145 1300.068 654.532 C 1300.068 654.919 1300.446 655.236 1300.909 655.236 C 1301.371 655.236 1301.75 654.919 1301.75 654.532 C 1301.75 654.145 1301.371 653.828 1300.909 653.828 Z  M 1294.18 656.644 C 1293.718 656.644 1293.339 656.961 1293.339 657.348 C 1293.339 657.736 1293.718 658.052 1294.18 658.052 C 1294.643 658.052 1295.021 657.736 1295.021 657.348 C 1295.021 656.961 1294.643 656.644 1294.18 656.644 Z  M 1297.545 656.644 C 1297.082 656.644 1296.703 656.961 1296.703 657.348 C 1296.703 657.736 1297.082 658.052 1297.545 658.052 C 1298.007 658.052 1298.386 657.736 1298.386 657.348 C 1298.386 656.961 1298.007 656.644 1297.545 656.644 Z  M 1300.909 656.644 C 1300.446 656.644 1300.068 656.961 1300.068 657.348 C 1300.068 657.736 1300.446 658.052 1300.909 658.052 C 1301.371 658.052 1301.75 657.736 1301.75 657.348 C 1301.75 656.961 1301.371 656.644 1300.909 656.644 Z  M 1281.144 660.869 L 1327.402 660.869 C 1328.109 660.869 1328.664 661.334 1328.664 661.925 C 1328.664 662.517 1328.109 662.981 1327.402 662.981 L 1324.459 662.981 C 1323.996 662.981 1323.618 663.298 1323.618 663.685 C 1323.618 664.073 1323.996 664.39 1324.459 664.39 L 1324.485 664.39 C 1323.927 664.995 1323.622 665.737 1323.618 666.502 L 1323.618 669.318 C 1323.618 674.77 1318.354 679.176 1311.843 679.176 L 1296.703 679.176 C 1290.192 679.176 1284.929 674.77 1284.929 669.318 L 1284.929 666.502 C 1284.929 665.707 1284.596 664.981 1284.061 664.39 L 1284.088 664.39 C 1284.55 664.39 1284.929 664.073 1284.929 663.685 C 1284.929 663.298 1284.55 662.981 1284.088 662.981 L 1281.144 662.981 C 1280.437 662.981 1279.882 662.517 1279.882 661.925 C 1279.882 661.334 1280.437 660.869 1281.144 660.869 Z  M 1287.452 662.981 C 1286.989 662.981 1286.611 663.298 1286.611 663.685 C 1286.611 664.073 1286.989 664.39 1287.452 664.39 C 1287.914 664.39 1288.293 664.073 1288.293 663.685 C 1288.293 663.298 1287.914 662.981 1287.452 662.981 Z  M 1290.816 662.981 C 1290.353 662.981 1289.975 663.298 1289.975 663.685 C 1289.975 664.073 1290.353 664.39 1290.816 664.39 C 1291.279 664.39 1291.657 664.073 1291.657 663.685 C 1291.657 663.298 1291.279 662.981 1290.816 662.981 Z  M 1294.18 662.981 C 1293.718 662.981 1293.339 663.298 1293.339 663.685 C 1293.339 664.073 1293.718 664.39 1294.18 664.39 C 1294.643 664.39 1295.021 664.073 1295.021 663.685 C 1295.021 663.298 1294.643 662.981 1294.18 662.981 Z  M 1297.545 662.981 C 1297.082 662.981 1296.703 663.298 1296.703 663.685 C 1296.703 664.073 1297.082 664.39 1297.545 664.39 C 1298.007 664.39 1298.386 664.073 1298.386 663.685 C 1298.386 663.298 1298.007 662.981 1297.545 662.981 Z  M 1300.909 662.981 C 1300.446 662.981 1300.068 663.298 1300.068 663.685 C 1300.068 664.073 1300.446 664.39 1300.909 664.39 C 1301.371 664.39 1301.75 664.073 1301.75 663.685 C 1301.75 663.298 1301.371 662.981 1300.909 662.981 Z  M 1304.273 662.981 C 1303.81 662.981 1303.432 663.298 1303.432 663.685 C 1303.432 664.073 1303.81 664.39 1304.273 664.39 C 1304.736 664.39 1305.114 664.073 1305.114 663.685 C 1305.114 663.298 1304.736 662.981 1304.273 662.981 Z  M 1307.637 662.981 C 1307.175 662.981 1306.796 663.298 1306.796 663.685 C 1306.796 664.073 1307.175 664.39 1307.637 664.39 C 1308.1 664.39 1308.478 664.073 1308.478 663.685 C 1308.478 663.298 1308.1 662.981 1307.637 662.981 Z  M 1311.002 662.981 C 1310.539 662.981 1310.16 663.298 1310.16 663.685 C 1310.16 664.073 1310.539 664.39 1311.002 664.39 C 1311.464 664.39 1311.843 664.073 1311.843 663.685 C 1311.843 663.298 1311.464 662.981 1311.002 662.981 Z  M 1314.366 662.981 C 1313.903 662.981 1313.525 663.298 1313.525 663.685 C 1313.525 664.073 1313.903 664.39 1314.366 664.39 C 1314.828 664.39 1315.207 664.073 1315.207 663.685 C 1315.207 663.298 1314.828 662.981 1314.366 662.981 Z  M 1317.73 662.981 C 1317.267 662.981 1316.889 663.298 1316.889 663.685 C 1316.889 664.073 1317.267 664.39 1317.73 664.39 C 1318.193 664.39 1318.571 664.073 1318.571 663.685 C 1318.571 663.298 1318.193 662.981 1317.73 662.981 Z  M 1321.094 662.981 C 1320.632 662.981 1320.253 663.298 1320.253 663.685 C 1320.253 664.073 1320.632 664.39 1321.094 664.39 C 1321.557 664.39 1321.935 664.073 1321.935 663.685 C 1321.935 663.298 1321.557 662.981 1321.094 662.981 Z  M 1283.246 681.288 C 1282.784 681.288 1282.405 681.605 1282.405 681.992 C 1282.405 682.38 1282.784 682.697 1283.246 682.697 C 1283.709 682.697 1284.088 682.38 1284.088 681.992 C 1284.088 681.605 1283.709 681.288 1283.246 681.288 Z  M 1325.3 681.288 C 1324.837 681.288 1324.459 681.605 1324.459 681.992 C 1324.459 682.38 1324.837 682.697 1325.3 682.697 C 1325.762 682.697 1326.141 682.38 1326.141 681.992 C 1326.141 681.605 1325.762 681.288 1325.3 681.288 Z " fill="rgb(0,0,0)"/></svg>