<?xml version="1.0" standalone="no"?><!-- Generator: Gravit.io --><svg xmlns="http://www.w3.org/2000/svg" xmlns:xlink="http://www.w3.org/1999/xlink" style="isolation:isolate" viewBox="1278.2 558.572 66.8 41.543" width="66.8" height="41.543"><path d=" M 1284.88 558.572 C 1282.256 558.572 1280.109 560.369 1280.109 562.566 L 1280.109 589.264 C 1279.054 589.616 1278.2 590.322 1278.2 591.327 L 1278.2 600.115 L 1285.834 600.115 L 1285.834 596.919 L 1337.366 596.919 L 1337.366 600.115 L 1345 600.115 L 1345 591.327 C 1345 590.322 1344.146 589.617 1343.091 589.264 L 1343.091 562.566 C 1343.091 560.369 1340.944 558.572 1338.32 558.572 L 1284.88 558.572 Z  M 1284.88 560.17 L 1338.32 560.17 C 1339.912 560.17 1341.183 561.234 1341.183 562.566 L 1341.183 583.566 C 1339.835 581.534 1337.857 579.845 1335.457 578.676 L 1335.457 570.779 L 1334.804 570.595 C 1334.804 570.595 1328.99 568.958 1323.051 568.958 C 1317.56 568.958 1312.379 570.309 1311.6 570.518 C 1310.821 570.309 1305.64 568.958 1300.149 568.958 C 1294.21 568.958 1288.396 570.595 1288.396 570.595 L 1287.743 570.78 L 1287.743 578.675 C 1285.343 579.844 1283.365 581.534 1282.017 583.566 L 1282.017 562.566 C 1282.017 561.234 1283.288 560.17 1284.88 560.17 Z  M 1284.88 561.767 C 1284.355 561.767 1283.926 562.127 1283.926 562.566 C 1283.926 563.006 1284.355 563.365 1284.88 563.365 C 1285.405 563.365 1285.834 563.006 1285.834 562.566 C 1285.834 562.127 1285.405 561.767 1284.88 561.767 Z  M 1288.697 561.767 C 1288.172 561.767 1287.743 562.127 1287.743 562.566 C 1287.743 563.006 1288.172 563.365 1288.697 563.365 C 1289.222 563.365 1289.651 563.006 1289.651 562.566 C 1289.651 562.127 1289.222 561.767 1288.697 561.767 Z  M 1292.514 561.767 C 1291.989 561.767 1291.56 562.127 1291.56 562.566 C 1291.56 563.006 1291.989 563.365 1292.514 563.365 C 1293.039 563.365 1293.469 563.006 1293.469 562.566 C 1293.469 562.127 1293.039 561.767 1292.514 561.767 Z  M 1296.331 561.767 C 1295.807 561.767 1295.377 562.127 1295.377 562.566 C 1295.377 563.006 1295.807 563.365 1296.331 563.365 C 1296.856 563.365 1297.286 563.006 1297.286 562.566 C 1297.286 562.127 1296.856 561.767 1296.331 561.767 Z  M 1300.149 561.767 C 1299.624 561.767 1299.194 562.127 1299.194 562.566 C 1299.194 563.006 1299.624 563.365 1300.149 563.365 C 1300.673 563.365 1301.103 563.006 1301.103 562.566 C 1301.103 562.127 1300.673 561.767 1300.149 561.767 Z  M 1303.966 561.767 C 1303.441 561.767 1303.011 562.127 1303.011 562.566 C 1303.011 563.006 1303.441 563.365 1303.966 563.365 C 1304.491 563.365 1304.92 563.006 1304.92 562.566 C 1304.92 562.127 1304.491 561.767 1303.966 561.767 Z  M 1307.783 561.767 C 1307.258 561.767 1306.829 562.127 1306.829 562.566 C 1306.829 563.006 1307.258 563.365 1307.783 563.365 C 1308.308 563.365 1308.737 563.006 1308.737 562.566 C 1308.737 562.127 1308.308 561.767 1307.783 561.767 Z  M 1311.6 561.767 C 1311.075 561.767 1310.646 562.127 1310.646 562.566 C 1310.646 563.006 1311.075 563.365 1311.6 563.365 C 1312.125 563.365 1312.554 563.006 1312.554 562.566 C 1312.554 562.127 1312.125 561.767 1311.6 561.767 Z  M 1315.417 561.767 C 1314.892 561.767 1314.463 562.127 1314.463 562.566 C 1314.463 563.006 1314.892 563.365 1315.417 563.365 C 1315.942 563.365 1316.371 563.006 1316.371 562.566 C 1316.371 562.127 1315.942 561.767 1315.417 561.767 Z  M 1319.234 561.767 C 1318.709 561.767 1318.28 562.127 1318.28 562.566 C 1318.28 563.006 1318.709 563.365 1319.234 563.365 C 1319.759 563.365 1320.189 563.006 1320.189 562.566 C 1320.189 562.127 1319.759 561.767 1319.234 561.767 Z  M 1323.051 561.767 C 1322.527 561.767 1322.097 562.127 1322.097 562.566 C 1322.097 563.006 1322.527 563.365 1323.051 563.365 C 1323.576 563.365 1324.006 563.006 1324.006 562.566 C 1324.006 562.127 1323.576 561.767 1323.051 561.767 Z  M 1326.869 561.767 C 1326.344 561.767 1325.914 562.127 1325.914 562.566 C 1325.914 563.006 1326.344 563.365 1326.869 563.365 C 1327.393 563.365 1327.823 563.006 1327.823 562.566 C 1327.823 562.127 1327.393 561.767 1326.869 561.767 Z  M 1330.686 561.767 C 1330.161 561.767 1329.731 562.127 1329.731 562.566 C 1329.731 563.006 1330.161 563.365 1330.686 563.365 C 1331.211 563.365 1331.64 563.006 1331.64 562.566 C 1331.64 562.127 1331.211 561.767 1330.686 561.767 Z  M 1334.503 561.767 C 1333.978 561.767 1333.549 562.127 1333.549 562.566 C 1333.549 563.006 1333.978 563.365 1334.503 563.365 C 1335.028 563.365 1335.457 563.006 1335.457 562.566 C 1335.457 562.127 1335.028 561.767 1334.503 561.767 Z  M 1338.32 561.767 C 1337.795 561.767 1337.366 562.127 1337.366 562.566 C 1337.366 563.006 1337.795 563.365 1338.32 563.365 C 1338.845 563.365 1339.274 563.006 1339.274 562.566 C 1339.274 562.127 1338.845 561.767 1338.32 561.767 Z  M 1300.149 570.555 C 1305.151 570.555 1309.739 571.729 1310.646 571.966 L 1310.646 576.947 L 1295.377 576.947 C 1293.353 576.947 1291.422 577.287 1289.651 577.886 L 1289.651 571.966 C 1290.558 571.729 1295.146 570.555 1300.149 570.555 Z  M 1323.051 570.555 C 1328.054 570.555 1332.642 571.729 1333.549 571.966 L 1333.549 577.886 C 1331.73 577.267 1329.786 576.948 1327.823 576.947 L 1312.554 576.947 L 1312.554 571.966 C 1313.461 571.729 1318.049 570.555 1323.051 570.555 Z  M 1295.377 578.544 L 1327.823 578.544 C 1335.211 578.544 1341.183 583.544 1341.183 589.729 L 1341.183 590.528 L 1342.137 590.528 C 1342.677 590.528 1343.091 590.875 1343.091 591.327 L 1343.091 598.517 L 1339.274 598.517 L 1339.274 595.321 L 1283.926 595.321 L 1283.926 598.517 L 1280.109 598.517 L 1280.109 591.327 C 1280.109 590.875 1280.523 590.528 1281.063 590.528 L 1282.017 590.528 L 1282.017 589.729 C 1282.017 583.544 1287.989 578.544 1295.377 578.544 Z  M 1284.88 588.93 C 1284.355 588.93 1283.926 589.29 1283.926 589.729 C 1283.926 590.169 1284.355 590.528 1284.88 590.528 C 1285.405 590.528 1285.834 590.169 1285.834 589.729 C 1285.834 589.29 1285.405 588.93 1284.88 588.93 Z  M 1288.697 588.93 C 1288.172 588.93 1287.743 589.29 1287.743 589.729 C 1287.743 590.169 1288.172 590.528 1288.697 590.528 C 1289.222 590.528 1289.651 590.169 1289.651 589.729 C 1289.651 589.29 1289.222 588.93 1288.697 588.93 Z  M 1292.514 588.93 C 1291.989 588.93 1291.56 589.29 1291.56 589.729 C 1291.56 590.169 1291.989 590.528 1292.514 590.528 C 1293.039 590.528 1293.469 590.169 1293.469 589.729 C 1293.469 589.29 1293.039 588.93 1292.514 588.93 Z  M 1296.331 588.93 C 1295.807 588.93 1295.377 589.29 1295.377 589.729 C 1295.377 590.169 1295.807 590.528 1296.331 590.528 C 1296.856 590.528 1297.286 590.169 1297.286 589.729 C 1297.286 589.29 1296.856 588.93 1296.331 588.93 Z  M 1300.149 588.93 C 1299.624 588.93 1299.194 589.29 1299.194 589.729 C 1299.194 590.169 1299.624 590.528 1300.149 590.528 C 1300.673 590.528 1301.103 590.169 1301.103 589.729 C 1301.103 589.29 1300.673 588.93 1300.149 588.93 Z  M 1303.966 588.93 C 1303.441 588.93 1303.011 589.29 1303.011 589.729 C 1303.011 590.169 1303.441 590.528 1303.966 590.528 C 1304.491 590.528 1304.92 590.169 1304.92 589.729 C 1304.92 589.29 1304.491 588.93 1303.966 588.93 Z  M 1307.783 588.93 C 1307.258 588.93 1306.829 589.29 1306.829 589.729 C 1306.829 590.169 1307.258 590.528 1307.783 590.528 C 1308.308 590.528 1308.737 590.169 1308.737 589.729 C 1308.737 589.29 1308.308 588.93 1307.783 588.93 Z  M 1311.6 588.93 C 1311.075 588.93 1310.646 589.29 1310.646 589.729 C 1310.646 590.169 1311.075 590.528 1311.6 590.528 C 1312.125 590.528 1312.554 590.169 1312.554 589.729 C 1312.554 589.29 1312.125 588.93 1311.6 588.93 Z  M 1315.417 588.93 C 1314.892 588.93 1314.463 589.29 1314.463 589.729 C 1314.463 590.169 1314.892 590.528 1315.417 590.528 C 1315.942 590.528 1316.371 590.169 1316.371 589.729 C 1316.371 589.29 1315.942 588.93 1315.417 588.93 Z  M 1319.234 588.93 C 1318.709 588.93 1318.28 589.29 1318.28 589.729 C 1318.28 590.169 1318.709 590.528 1319.234 590.528 C 1319.759 590.528 1320.189 590.169 1320.189 589.729 C 1320.189 589.29 1319.759 588.93 1319.234 588.93 Z  M 1323.051 588.93 C 1322.527 588.93 1322.097 589.29 1322.097 589.729 C 1322.097 590.169 1322.527 590.528 1323.051 590.528 C 1323.576 590.528 1324.006 590.169 1324.006 589.729 C 1324.006 589.29 1323.576 588.93 1323.051 588.93 Z  M 1326.869 588.93 C 1326.344 588.93 1325.914 589.29 1325.914 589.729 C 1325.914 590.169 1326.344 590.528 1326.869 590.528 C 1327.393 590.528 1327.823 590.169 1327.823 589.729 C 1327.823 589.29 1327.393 588.93 1326.869 588.93 Z  M 1330.686 588.93 C 1330.161 588.93 1329.731 589.29 1329.731 589.729 C 1329.731 590.169 1330.161 590.528 1330.686 590.528 C 1331.211 590.528 1331.64 590.169 1331.64 589.729 C 1331.64 589.29 1331.211 588.93 1330.686 588.93 Z  M 1334.503 588.93 C 1333.978 588.93 1333.549 589.29 1333.549 589.729 C 1333.549 590.169 1333.978 590.528 1334.503 590.528 C 1335.028 590.528 1335.457 590.169 1335.457 589.729 C 1335.457 589.29 1335.028 588.93 1334.503 588.93 Z  M 1338.32 588.93 C 1337.795 588.93 1337.366 589.29 1337.366 589.729 C 1337.366 590.169 1337.795 590.528 1338.32 590.528 C 1338.845 590.528 1339.274 590.169 1339.274 589.729 C 1339.274 589.29 1338.845 588.93 1338.32 588.93 Z " fill="rgb(0,0,0)"/></svg>